<svg width="14" height="14" viewBox="0 0 14 14" fill="none" xmlns="http://www.w3.org/2000/svg">
<path d="M3.61232 1.94461C2.754 2.04054 2.06696 2.71797 1.96765 3.56705C1.70089 5.84791 1.70089 8.15209 1.96765 10.433C2.06696 11.282 2.754 11.9595 3.61232 12.0554C5.84494 12.3049 8.15466 12.3049 10.3873 12.0554C11.2456 11.9595 11.9326 11.282 12.032 10.433C12.2236 8.79409 12.2776 7.14319 12.1938 5.49755C12.1917 5.45506 12.2075 5.41361 12.2376 5.38352L13.0167 4.60443C13.1069 4.51426 13.261 4.57064 13.2705 4.69781C13.4176 6.6515 13.3772 8.61576 13.1493 10.5636C12.9882 11.9414 11.882 13.0203 10.5122 13.1734C8.19658 13.4322 5.80303 13.4322 3.48737 13.1734C2.11758 13.0203 1.01141 11.9414 0.85027 10.5636C0.573347 8.19595 0.573347 5.80406 0.85027 3.43637C1.01141 2.05864 2.11758 0.979662 3.48737 0.826569C5.80303 0.567759 8.19658 0.567759 10.5122 0.826569C10.9947 0.880489 11.4444 1.04926 11.8317 1.30549C11.9079 1.35591 11.9155 1.46303 11.8508 1.52764L11.2487 2.12981C11.1994 2.17906 11.123 2.18735 11.0616 2.15445C10.8566 2.04458 10.6287 1.97159 10.3873 1.94461C8.15467 1.69508 5.84494 1.69508 3.61232 1.94461Z" fill="#2C5378"/>
<path d="M13.7725 2.52275C13.9922 2.30308 13.9922 1.94693 13.7725 1.72726C13.5529 1.50759 13.1967 1.50759 12.977 1.72726L6.62479 8.07951L4.77254 6.22726C4.55287 6.00759 4.19672 6.00759 3.97705 6.22726C3.75738 6.44693 3.75738 6.80308 3.97705 7.02275L6.22705 9.27275C6.44672 9.49242 6.80287 9.49242 7.02254 9.27275L13.7725 2.52275Z" fill="#2C5378"/>
</svg>
