<svg width="324" height="44" viewBox="0 0 324 44" fill="none" xmlns="http://www.w3.org/2000/svg">
<path fill-rule="evenodd" clip-rule="evenodd" d="M200.691 27.1134C201.107 27.1134 201.443 27.5084 201.443 27.9956V30.3481C201.443 30.5105 201.556 30.6421 201.694 30.6421H213.726C213.865 30.6421 213.977 30.5105 213.977 30.3481V27.9956C213.977 27.5084 214.314 27.1134 214.729 27.1134C215.144 27.1134 215.481 27.5084 215.481 27.9956V30.3481C215.481 31.4849 214.695 32.4065 213.726 32.4065H201.694C200.725 32.4065 199.939 31.4849 199.939 30.3481V27.9956C199.939 27.5084 200.276 27.1134 200.691 27.1134Z" fill="white"/>
<path d="M206.445 12.4106C205.929 12.4106 205.499 12.873 205.454 13.4758C205.3 15.5374 205.273 17.6091 205.372 19.6748C205.125 19.6909 204.877 19.7095 204.63 19.7306L203.136 19.8583C202.56 19.9076 202.238 20.6608 202.549 21.2315C203.614 23.1865 204.986 24.8861 206.593 26.2396L207.191 26.7438C207.501 27.0053 207.919 27.0053 208.23 26.7438L208.828 26.2396C210.434 24.8861 211.806 23.1865 212.871 21.2315C213.182 20.6608 212.86 19.9076 212.284 19.8583L210.791 19.7306C210.543 19.7095 210.296 19.6909 210.048 19.6748C210.148 17.6091 210.121 15.5374 209.967 13.4758C209.922 12.873 209.492 12.4106 208.976 12.4106H206.445Z" fill="white"/>
<path d="M95.8379 26C95.4899 26 95.1479 25.904 94.8119 25.712C94.8119 26.012 94.7939 26.312 94.7579 26.612C94.6859 27.404 94.4339 28.136 94.0019 28.808C93.5699 29.492 92.9639 30.038 92.1839 30.446C91.4039 30.866 90.4679 31.076 89.3759 31.076C87.8159 31.076 86.6699 30.686 85.9379 29.906C85.2179 29.126 84.8579 28.118 84.8579 26.882C84.8579 25.694 85.1579 24.44 85.7579 23.12C85.8659 22.928 86.0039 22.832 86.1719 22.832C86.2799 22.832 86.3699 22.868 86.4419 22.94C86.5139 23.012 86.5499 23.102 86.5499 23.21C86.5499 23.27 86.5319 23.348 86.4959 23.444C86.1359 24.404 85.9559 25.22 85.9559 25.892C85.9559 27.572 87.0959 28.412 89.3759 28.412C90.1559 28.412 90.8459 28.322 91.4459 28.142C92.0459 27.974 92.5199 27.752 92.8679 27.476C93.2279 27.2 93.4679 26.912 93.5879 26.612C93.2039 25.304 92.6459 23.984 91.9139 22.652L93.2999 21.176C93.4319 21.044 93.5339 20.978 93.6059 20.978C93.7019 20.978 93.7919 21.05 93.8759 21.194C94.0079 21.458 94.1339 21.752 94.2539 22.076C94.4219 22.46 94.5599 22.736 94.6679 22.904C94.7759 23.06 94.9139 23.174 95.0819 23.246C95.2499 23.306 95.4959 23.336 95.8199 23.336H95.9639L96.1259 24.668L95.9639 26H95.8379ZM88.3859 21.302C88.3859 20.978 88.4999 20.702 88.7279 20.474C88.9559 20.246 89.2319 20.132 89.5559 20.132C89.8679 20.132 90.1319 20.246 90.3479 20.474C90.5759 20.702 90.6899 20.978 90.6899 21.302C90.6899 21.602 90.5759 21.866 90.3479 22.094C90.1319 22.322 89.8679 22.436 89.5559 22.436C89.2319 22.436 88.9559 22.328 88.7279 22.112C88.4999 21.884 88.3859 21.614 88.3859 21.302ZM95.8206 23.336H95.9466C96.5946 23.336 97.0926 23.264 97.4406 23.12C97.7886 22.964 98.0466 22.754 98.2146 22.49C98.3946 22.226 98.5746 21.83 98.7546 21.302C98.8386 21.05 98.9886 20.924 99.2046 20.924C99.3366 20.924 99.4446 20.984 99.5286 21.104C99.6126 21.212 99.6366 21.356 99.6006 21.536C99.5286 21.836 99.4926 22.088 99.4926 22.292C99.4926 22.688 99.6006 22.964 99.8166 23.12C100.045 23.264 100.381 23.336 100.825 23.336C101.377 23.336 101.779 23.192 102.031 22.904C102.295 22.604 102.499 22.094 102.643 21.374C102.667 21.23 102.721 21.122 102.805 21.05C102.889 20.978 102.985 20.942 103.093 20.942C103.213 20.942 103.315 20.99 103.399 21.086C103.483 21.182 103.519 21.308 103.507 21.464C103.483 21.68 103.471 21.836 103.471 21.932C103.471 22.868 103.939 23.336 104.875 23.336C105.511 23.336 105.973 23.204 106.261 22.94L105.973 21.122L107.107 20.186C107.155 20.138 107.209 20.114 107.269 20.114C107.317 20.114 107.353 20.162 107.377 20.258L107.701 22.148C107.773 22.58 107.893 22.886 108.061 23.066C108.229 23.246 108.481 23.336 108.817 23.336H108.889L109.033 24.668L108.889 26H108.817C107.965 26 107.317 25.664 106.873 24.992C106.753 25.256 106.507 25.49 106.135 25.694C105.763 25.886 105.343 25.988 104.875 26H104.857C104.401 25.988 103.981 25.862 103.597 25.622C103.225 25.382 102.985 25.076 102.877 24.704C102.673 25.136 102.373 25.46 101.977 25.676C101.593 25.892 101.209 26 100.825 26H100.789C99.5646 25.988 98.8146 25.556 98.5386 24.704C98.3586 25.148 98.0346 25.478 97.5666 25.694C97.1106 25.898 96.5706 26 95.9466 26H95.8206V23.336ZM100.717 19.556C100.645 19.316 100.609 19.094 100.609 18.89C100.609 18.482 100.735 18.122 100.987 17.81C101.251 17.486 101.617 17.198 102.085 16.946C102.601 16.67 103.195 16.532 103.867 16.532C104.227 16.532 104.539 16.58 104.803 16.676C105.067 16.76 105.247 16.892 105.343 17.072C105.451 17.228 105.505 17.426 105.505 17.666C105.505 18.05 105.373 18.464 105.109 18.908C104.713 18.764 104.263 18.692 103.759 18.692C103.195 18.692 102.643 18.776 102.103 18.944C101.575 19.112 101.113 19.316 100.717 19.556ZM102.355 15.092C102.355 14.816 102.451 14.582 102.643 14.39C102.847 14.186 103.087 14.084 103.363 14.084C103.627 14.084 103.855 14.186 104.047 14.39C104.239 14.582 104.335 14.816 104.335 15.092C104.335 15.356 104.239 15.584 104.047 15.776C103.855 15.968 103.627 16.064 103.363 16.064C103.087 16.064 102.847 15.968 102.643 15.776C102.451 15.584 102.355 15.356 102.355 15.092ZM108.74 23.336H108.884C109.628 23.336 110.204 23.276 110.612 23.156C111.032 23.024 111.374 22.79 111.638 22.454C111.902 22.106 112.142 21.584 112.358 20.888C112.406 20.756 112.472 20.654 112.556 20.582C112.64 20.51 112.736 20.474 112.844 20.474C112.964 20.474 113.066 20.522 113.15 20.618C113.234 20.702 113.276 20.828 113.276 20.996C113.276 21.332 113.252 21.674 113.204 22.022C113.156 22.358 113.108 22.616 113.06 22.796C113.168 22.952 113.402 23.084 113.762 23.192C114.122 23.288 114.446 23.336 114.734 23.336H114.914L115.076 24.668L114.914 26H114.734C114.17 26 113.666 25.862 113.222 25.586C112.778 25.298 112.484 24.914 112.34 24.434C111.668 25.478 110.516 26 108.884 26H108.74V23.336ZM107.858 29.816C107.762 29.576 107.714 29.336 107.714 29.096C107.714 28.7 107.846 28.352 108.11 28.052C108.374 27.764 108.74 27.494 109.208 27.242C109.7 26.978 110.288 26.846 110.972 26.846C111.32 26.846 111.62 26.888 111.872 26.972C112.136 27.068 112.322 27.2 112.43 27.368C112.538 27.524 112.592 27.716 112.592 27.944C112.592 28.34 112.46 28.76 112.196 29.204C111.8 29.108 111.356 29.06 110.864 29.06C110.276 29.06 109.712 29.132 109.172 29.276C108.644 29.42 108.206 29.6 107.858 29.816ZM114.77 23.336H115.13C116.006 23.348 116.822 23.294 117.578 23.174C118.334 23.054 118.838 22.82 119.09 22.472C118.91 21.932 118.454 21.272 117.722 20.492C116.99 19.7 116.222 18.992 115.418 18.368L115.778 16.046L122.33 13.184C122.426 13.148 122.51 13.13 122.582 13.13C122.702 13.13 122.786 13.172 122.834 13.256C122.894 13.34 122.906 13.442 122.87 13.562L122.474 15.65L117.83 17.522C117.938 17.642 118.142 17.888 118.442 18.26L118.478 18.296C118.874 18.788 119.198 19.208 119.45 19.556C119.714 19.892 119.93 20.168 120.098 20.384C120.854 21.356 121.382 22.022 121.682 22.382C121.994 22.73 122.282 22.976 122.546 23.12C122.822 23.264 123.164 23.336 123.572 23.336H123.734L123.878 24.668L123.734 26H123.572C122.804 26 122.144 25.808 121.592 25.424C121.04 25.028 120.524 24.476 120.044 23.768C119.696 24.62 119.084 25.208 118.208 25.532C117.332 25.844 116.288 26 115.076 26H114.77V23.336ZM123.576 23.336H123.72C124.464 23.336 125.04 23.276 125.448 23.156C125.868 23.024 126.21 22.79 126.474 22.454C126.738 22.106 126.978 21.584 127.194 20.888C127.242 20.756 127.308 20.654 127.392 20.582C127.476 20.51 127.572 20.474 127.68 20.474C127.8 20.474 127.902 20.522 127.986 20.618C128.07 20.702 128.112 20.828 128.112 20.996C128.112 21.332 128.088 21.674 128.04 22.022C127.992 22.358 127.944 22.616 127.896 22.796C128.004 22.952 128.238 23.084 128.598 23.192C128.958 23.288 129.282 23.336 129.57 23.336H129.75L129.912 24.668L129.75 26H129.57C129.006 26 128.502 25.862 128.058 25.586C127.614 25.298 127.32 24.914 127.176 24.434C126.504 25.478 125.352 26 123.72 26H123.576V23.336ZM122.694 29.816C122.598 29.576 122.55 29.336 122.55 29.096C122.55 28.7 122.682 28.352 122.946 28.052C123.21 27.764 123.576 27.494 124.044 27.242C124.536 26.978 125.124 26.846 125.808 26.846C126.156 26.846 126.456 26.888 126.708 26.972C126.972 27.068 127.158 27.2 127.266 27.368C127.374 27.524 127.428 27.716 127.428 27.944C127.428 28.34 127.296 28.76 127.032 29.204C126.636 29.108 126.192 29.06 125.7 29.06C125.112 29.06 124.548 29.132 124.008 29.276C123.48 29.42 123.042 29.6 122.694 29.816ZM134.88 26C133.848 26 133.068 25.628 132.54 24.884C131.964 25.628 131.04 26 129.768 26H129.606V23.336H129.822C130.446 23.336 130.872 23.246 131.1 23.066C131.34 22.886 131.454 22.544 131.442 22.04C131.406 21.068 131.34 19.886 131.244 18.494C131.16 17.09 131.1 16.13 131.064 15.614L131.01 14.894L132.9 13.4C132.984 13.316 133.08 13.274 133.188 13.274C133.368 13.274 133.458 13.4 133.458 13.652C133.47 13.748 133.476 14.114 133.476 14.75C133.476 17.378 133.434 19.85 133.35 22.166C133.35 22.31 133.338 22.49 133.314 22.706C133.386 22.922 133.536 23.084 133.764 23.192C133.992 23.288 134.34 23.336 134.808 23.336H134.97L135.132 24.668L134.97 26H134.88ZM134.826 23.336H134.898C135.81 23.336 136.554 23.3 137.13 23.228C137.706 23.156 138.126 23.018 138.39 22.814C137.898 21.842 137.394 20.942 136.878 20.114L138.246 18.62C138.366 18.5 138.468 18.44 138.552 18.44C138.648 18.44 138.732 18.5 138.804 18.62C139.044 19.04 139.242 19.61 139.398 20.33C139.554 21.038 139.632 21.722 139.632 22.382C139.632 22.742 139.608 23.048 139.56 23.3C139.416 24.104 138.972 24.758 138.228 25.262C137.496 25.754 136.386 26 134.898 26H134.844L134.826 23.336ZM134.034 29.87C133.962 29.642 133.926 29.42 133.926 29.204C133.926 28.448 134.418 27.8 135.402 27.26C135.918 26.984 136.512 26.846 137.184 26.846C137.544 26.846 137.856 26.888 138.12 26.972C138.384 27.068 138.564 27.206 138.66 27.386C138.768 27.542 138.822 27.74 138.822 27.98C138.822 28.376 138.69 28.796 138.426 29.24C137.97 29.084 137.508 29.006 137.04 29.006C136.488 29.006 135.948 29.09 135.42 29.258C134.892 29.426 134.43 29.63 134.034 29.87ZM135.492 30.41C135.492 30.134 135.588 29.9 135.78 29.708C135.972 29.516 136.206 29.42 136.482 29.42C136.758 29.42 136.992 29.516 137.184 29.708C137.376 29.9 137.472 30.134 137.472 30.41C137.472 30.686 137.376 30.92 137.184 31.112C136.992 31.304 136.758 31.4 136.482 31.4C136.206 31.4 135.972 31.304 135.78 31.112C135.588 30.92 135.492 30.686 135.492 30.41ZM142.758 26.36C142.71 26.444 142.656 26.51 142.596 26.558C142.536 26.606 142.476 26.63 142.416 26.63C142.248 26.63 142.158 26.498 142.146 26.234C142.074 24.758 141.954 22.898 141.786 20.654C141.618 18.41 141.432 16.49 141.228 14.894L143.118 13.4C143.226 13.316 143.316 13.274 143.388 13.274C143.568 13.274 143.664 13.4 143.676 13.652C143.832 16.388 143.91 18.566 143.91 20.186C143.91 22.082 143.826 23.474 143.658 24.362C143.622 24.578 143.502 24.896 143.298 25.316C143.106 25.736 142.926 26.084 142.758 26.36ZM152.518 26.162C151.282 26.162 150.418 25.832 149.926 25.172C149.434 24.512 149.218 23.732 149.278 22.832C149.29 22.7 149.332 22.592 149.404 22.508C149.488 22.424 149.578 22.382 149.674 22.382C149.842 22.382 149.962 22.484 150.034 22.688C150.118 22.964 150.34 23.162 150.7 23.282C151.06 23.402 151.702 23.462 152.626 23.462C153.322 23.462 153.91 23.426 154.39 23.354C154.87 23.27 155.128 23.09 155.164 22.814C155.2 22.562 155.032 22.232 154.66 21.824C154.3 21.404 153.808 20.972 153.184 20.528C152.56 20.072 151.894 19.658 151.186 19.286C151.03 19.202 150.952 19.106 150.952 18.998C150.952 18.938 150.97 18.872 151.006 18.8L151.834 17.252C151.954 17.036 152.104 16.928 152.284 16.928C152.392 16.928 152.506 16.958 152.626 17.018C153.034 17.198 153.52 17.546 154.084 18.062C154.66 18.566 155.158 19.19 155.578 19.934C156.01 20.666 156.226 21.434 156.226 22.238C156.226 23.402 155.986 24.308 155.506 24.956C154.918 25.76 153.922 26.162 152.518 26.162ZM159.64 31.076C159.436 31.088 159.064 30.926 158.524 30.59C157.984 30.266 157.534 29.936 157.174 29.6C157.09 29.528 157.048 29.456 157.048 29.384C157.048 29.24 157.168 29.15 157.408 29.114C158.644 28.934 159.79 28.58 160.846 28.052C161.914 27.536 162.616 26.864 162.952 26.036C162.304 26.072 161.614 26.09 160.882 26.09C160.042 26.09 159.358 25.856 158.83 25.388C158.314 24.92 158.056 24.2 158.056 23.228C158.056 22.436 158.182 21.704 158.434 21.032C158.698 20.36 159.052 19.832 159.496 19.448C159.94 19.052 160.444 18.854 161.008 18.854C161.884 18.854 162.604 19.262 163.168 20.078C163.744 20.894 164.122 21.986 164.302 23.354H165.058L165.22 24.668L165.058 26H164.356C164.224 27.104 163.87 28.034 163.294 28.79C162.718 29.558 162.082 30.128 161.386 30.5C160.702 30.872 160.12 31.064 159.64 31.076ZM159.064 22.598C159.196 22.898 159.49 23.114 159.946 23.246C160.414 23.378 160.864 23.444 161.296 23.444C161.62 23.444 162.178 23.432 162.97 23.408C162.766 22.748 162.454 22.232 162.034 21.86C161.614 21.476 161.218 21.272 160.846 21.248C160.378 21.212 159.976 21.338 159.64 21.626C159.316 21.902 159.124 22.226 159.064 22.598ZM170.194 26C169.162 26 168.382 25.628 167.854 24.884C167.278 25.628 166.354 26 165.082 26H164.92V23.336H165.136C165.76 23.336 166.186 23.246 166.414 23.066C166.654 22.886 166.768 22.544 166.756 22.04C166.72 21.068 166.654 19.886 166.558 18.494C166.474 17.09 166.414 16.13 166.378 15.614L166.324 14.894L168.214 13.4C168.298 13.316 168.394 13.274 168.502 13.274C168.682 13.274 168.772 13.4 168.772 13.652C168.784 13.748 168.79 14.114 168.79 14.75C168.79 17.378 168.748 19.85 168.664 22.166C168.664 22.31 168.652 22.49 168.628 22.706C168.7 22.922 168.85 23.084 169.078 23.192C169.306 23.288 169.654 23.336 170.122 23.336H170.284L170.446 24.668L170.284 26H170.194ZM170.141 23.336H170.213C170.861 23.336 171.431 23.294 171.923 23.21C172.415 23.126 172.739 23 172.895 22.832C172.475 21.98 171.965 21.074 171.365 20.114L172.751 18.62C172.859 18.5 172.961 18.44 173.057 18.44C173.165 18.44 173.243 18.5 173.291 18.62C173.531 19.052 173.729 19.61 173.885 20.294C174.053 20.978 174.137 21.638 174.137 22.274C174.137 22.682 174.107 23.024 174.047 23.3C173.879 24.08 173.483 24.728 172.859 25.244C172.235 25.748 171.389 26 170.321 26H170.141V23.336ZM170.681 16.082C170.681 15.758 170.795 15.482 171.023 15.254C171.251 15.026 171.527 14.912 171.851 14.912C172.163 14.912 172.427 15.026 172.643 15.254C172.871 15.482 172.985 15.758 172.985 16.082C172.985 16.382 172.871 16.646 172.643 16.874C172.415 17.102 172.151 17.216 171.851 17.216C171.527 17.216 171.251 17.102 171.023 16.874C170.795 16.646 170.681 16.382 170.681 16.082ZM176.684 26.36C176.636 26.444 176.582 26.51 176.522 26.558C176.462 26.606 176.402 26.63 176.342 26.63C176.174 26.63 176.084 26.498 176.072 26.234C176 24.758 175.88 22.898 175.712 20.654C175.544 18.41 175.358 16.49 175.154 14.894L177.044 13.4C177.152 13.316 177.242 13.274 177.314 13.274C177.494 13.274 177.59 13.4 177.602 13.652C177.758 16.388 177.836 18.566 177.836 20.186C177.836 22.082 177.752 23.474 177.584 24.362C177.548 24.578 177.428 24.896 177.224 25.316C177.032 25.736 176.852 26.084 176.684 26.36ZM182.524 26.162C181.288 26.162 180.424 25.832 179.932 25.172C179.44 24.512 179.224 23.732 179.284 22.832C179.296 22.7 179.338 22.592 179.41 22.508C179.494 22.424 179.584 22.382 179.68 22.382C179.848 22.382 179.968 22.484 180.04 22.688C180.124 22.964 180.346 23.162 180.706 23.282C181.066 23.402 181.708 23.462 182.632 23.462C183.328 23.462 183.916 23.426 184.396 23.354C184.876 23.27 185.134 23.09 185.17 22.814C185.206 22.562 185.038 22.232 184.666 21.824C184.306 21.404 183.814 20.972 183.19 20.528C182.566 20.072 181.9 19.658 181.192 19.286C181.036 19.202 180.958 19.106 180.958 18.998C180.958 18.938 180.976 18.872 181.012 18.8L181.84 17.252C181.96 17.036 182.11 16.928 182.29 16.928C182.398 16.928 182.512 16.958 182.632 17.018C183.04 17.198 183.526 17.546 184.09 18.062C184.666 18.566 185.164 19.19 185.584 19.934C186.016 20.666 186.232 21.434 186.232 22.238C186.232 23.402 185.992 24.308 185.512 24.956C184.924 25.76 183.928 26.162 182.524 26.162Z" fill="white"/>
<rect x="1.25" y="1.25" width="321.5" height="41.5" rx="19.75" stroke="white" stroke-width="1.5"/>
</svg>
